# xmcd CD database file
#
# Track frame offsets:
#	150
#	15980
#	31610
#	44845
#	63215
#	75585
#	89655
#	104062
#	118462
#	131042
#
# Disc length: 1923 seconds
#
# Revision: 0
# Processed by: cddbd v1.5.2PL0 Copyright (c) Steve Scherf et al.
# Submitted via: CDex 1.51
#
DISCID=8607810a
DTITLE=MARTY ROBBINS - THE LEGEND
DYEAR=1900
DGENRE=Country
TTITLE0=Lady I Love You
TTITLE1=I'm Just Here To Get My Baby Out Of Jail 
TTITLE2=My All TIme High
TTITLE3=The Air That I Breathe 
TTITLE4=Jumper Cable Man
TTITLE5=Simple Little Love Song 
TTITLE6=Teardrops In My Heart 
TTITLE7=It's Not Too Hard
TTITLE8=Honeycombe
TTITLE9=My All TIme High
EXTD=
EXTT0=
EXTT1=
EXTT2=
EXTT3=
EXTT4=
EXTT5=
EXTT6=
EXTT7=
EXTT8=
EXTT9=
PLAYORDER=
